<svg xmlns="http://www.w3.org/2000/svg" viewBox="0 0 450.1 450.27"><defs><style>.cls-1{fill:#f5f5f5;}.cls-2{fill:#e0e0e0;}.cls-15,.cls-3{fill:#455a64;}.cls-4{fill:#27debf;}.cls-5{fill:#a1a1ff;}.cls-6{fill:#2f2fa8;}.cls-7{fill:#263238;}.cls-8{fill:#37474f;}.cls-9{fill:#3e3ece;}.cls-10,.cls-16,.cls-18{fill:#fff;}.cls-10{opacity:0.9;}.cls-10,.cls-15,.cls-18,.cls-19,.cls-22,.cls-26{isolation:isolate;}.cls-11{opacity:0.4;}.cls-12{fill:#2839dd;}.cls-13{fill:#f0f0f0;}.cls-14{fill:#0f063a;}.cls-15,.cls-17{opacity:0.5;}.cls-18{font-size:24.3px;font-family:Montserrat-SemiBold, Montserrat;font-weight:600;}.cls-19,.cls-29{fill:#4440f4;}.cls-19,.cls-30{opacity:0.1;}.cls-20{fill:#ffa8a7;}.cls-21{fill:#1e12b5;}.cls-22{opacity:0.3;}.cls-23{fill:#f28f8f;}.cls-24{fill:#0a0530;}.cls-25{fill:#ffbda7;}.cls-26{opacity:0.2;}.cls-27{fill:#e6e6e6;}.cls-28{fill:#f79776;}.cls-31{fill:#914f4e;}.cls-32{fill:#783736;}</style></defs><g id="Layer_2" data-name="Layer 2"><g id="Layer_1-2" data-name="Layer 1"><g id="Floor"><ellipse id="Floor-2" class="cls-1" cx="225.05" cy="320.34" rx="225.05" ry="129.93"/></g><g id="Shadows"><ellipse id="Shadow" class="cls-2" cx="263.57" cy="367.89" rx="41.38" ry="23.89"/><ellipse id="Shadow-2" class="cls-2" cx="371.22" cy="353.74" rx="41.38" ry="23.89"/><ellipse id="Shadow-3" class="cls-2" cx="144.88" cy="403.71" rx="41.38" ry="23.89"/></g><g id="Window"><path class="cls-3" d="M78.06,358.33a4.85,4.85,0,0,1-2.12-3.83V146.11a5,5,0,0,1,2.26-3.91L323.36.65a4.23,4.23,0,0,1,6.48,3.74v208.4a5,5,0,0,1-2.26,3.91L82.42,358.25A4.82,4.82,0,0,1,78.06,358.33Z"/><path class="cls-4" d="M82,358.44H81.9a.85.85,0,0,1-.22.09h-.17a1.08,1.08,0,0,1-.31.07.8.8,0,0,1-.21,0l-.34.05a4.42,4.42,0,0,1-2.6-.45,4.81,4.81,0,0,1-2.11-3.82V172.82l4.24,2.45V356.94c0,1,.51,1.62,1.25,1.62a.76.76,0,0,0,.3,0h0A1.23,1.23,0,0,0,82,358.44Z"/><path class="cls-5" d="M82,358.44H81.9a.85.85,0,0,1-.22.09h-.17a1.08,1.08,0,0,1-.31.07.8.8,0,0,1-.21,0l-.34.05a4.42,4.42,0,0,1-2.6-.45,4.81,4.81,0,0,1-2.11-3.82V172.82l4.24,2.45V356.94c0,1,.51,1.62,1.25,1.62a.76.76,0,0,0,.3,0h0A1.23,1.23,0,0,0,82,358.44Z"/><polygon class="cls-4" points="80.17 175.27 75.93 172.82 75.93 213.17 80.17 215.64 80.17 175.27"/><polygon class="cls-6" points="80.17 175.27 75.93 172.82 75.93 213.17 80.17 215.64 80.17 175.27"/><path class="cls-7" d="M80.82,146.33a4.69,4.69,0,0,0-.65,2.22v26.72l-4.24-2.45v-27a4.71,4.71,0,0,1,.65-2Z"/><path class="cls-8" d="M329.84,4.4V16.46L150.13,120.21c-1.24.72-2.25.13-2.25-1.3v-4.57c0-1.43-1-2-2.26-1.3L90.89,144.65a5,5,0,0,0-2.26,3.91v4.56A5,5,0,0,1,86.38,157l-6.21,3.62v-12a5,5,0,0,1,2.25-3.91L327.59,3.1C328.83,2.38,329.84,3,329.84,4.4Z"/><path class="cls-9" d="M329.85,212.8a5,5,0,0,1-2.26,3.9L82.42,358.25c-1.24.71-2.25.13-2.25-1.31V160.65l6.21-3.58c1.24-.72,3.26-11.66,4.51-12.38l53.81-31.07c1.25-.72,4.19,7.36,5.43,6.64L329.84,16.46V212.8Z"/><path class="cls-10" d="M329.85,212.8a5,5,0,0,1-2.26,3.9L82.42,358.25c-1.24.71-2.25.13-2.25-1.31V160.65l6.21-3.58c1.24-.72,3.26-11.66,4.51-12.38l53.81-31.07c1.25-.72,4.19,7.36,5.43,6.64L329.84,16.46V212.8Z"/><g class="cls-11"><path class="cls-12" d="M328.84,18.19V212.8a4,4,0,0,1-1.76,3L81.92,357.38a1,1,0,0,1-.51.17c-.23,0-.24-.5-.24-.61V161.18l5.71-3.3c.88-.51,1.44-2.26,2.7-6.76a34.15,34.15,0,0,1,1.88-5.66l53.37-30.81a22.88,22.88,0,0,1,1.72,2.74c1.45,2.54,2.25,3.86,3.41,3.86a1.45,1.45,0,0,0,.67-.17L328.84,18.19m1-1.73L150.13,120.21a.49.49,0,0,1-.17,0c-1.26,0-3.82-6.73-5.09-6.73a.49.49,0,0,0-.17,0L90.89,144.65c-1.25.72-3.27,11.66-4.51,12.38l-6.21,3.62V356.94c0,1,.51,1.61,1.24,1.61a2.08,2.08,0,0,0,1-.3L327.59,216.7a5,5,0,0,0,2.26-3.9V16.46Z"/></g><polygon class="cls-9" points="80.17 175.27 80.17 215.64 329.84 71.51 329.84 31.13 80.17 175.27"/><path class="cls-13" d="M329.84,16.46V31.13L80.17,175.27V160.65L84.8,158c1.24-.72,1.66-1.82,2.25-3.91l1.58-5.46c.49-1.9,1-3.19,2.26-3.91l53.81-31.07c1.25-.72,2.23-.8,3.18.77l1.93,3.5c.7,1.23,1.06,2,2.3,1.23Z"/><path class="cls-14" d="M319.26,12c1.57-.9,2.84-.17,2.84,1.64a6.27,6.27,0,0,1-2.84,4.92c-1.56.9-2.83.17-2.83-1.64A6.3,6.3,0,0,1,319.26,12Z"/><path class="cls-14" d="M309.06,17.85c1.56-.9,2.83-.17,2.83,1.64a6.3,6.3,0,0,1-2.83,4.92c-1.57.9-2.84.17-2.84-1.64A6.27,6.27,0,0,1,309.06,17.85Z"/><path class="cls-14" d="M298.83,23.74c1.56-.9,2.84-.17,2.84,1.64a6.31,6.31,0,0,1-2.84,4.92c-1.57.91-2.84.17-2.84-1.64A6.27,6.27,0,0,1,298.83,23.74Z"/><path class="cls-15" d="M90.51,161.65l-3.54,2,1.35-2.59a.66.66,0,0,0,0-.64c-.1-.12-.28,0-.4.19L86,164.31h0v.14h0v.19a.49.49,0,0,0,0,.17h0v.08h0l1.92,1.48a.17.17,0,0,0,.19,0,.74.74,0,0,0,.21-.28.65.65,0,0,0,0-.6l-1.35-1,3.54-2a.73.73,0,0,0,.29-.61C90.8,161.65,90.67,161.57,90.51,161.65Z"/><path class="cls-15" d="M93.47,160,97,158l-1.35-1c-.12-.09-.13-.36,0-.6s.28-.37.4-.28L98,157.55h0a.13.13,0,0,1,.06.07h0a.43.43,0,0,1,0,.16.61.61,0,0,1,0,.19V158l-.06.14h0l-1.92,3.66a.51.51,0,0,1-.19.22.14.14,0,0,1-.21,0,.66.66,0,0,1,0-.64L97,158.8l-3.54,2c-.16.09-.28,0-.28-.28A.74.74,0,0,1,93.47,160Z"/><path class="cls-15" d="M105.06,149.75c0-.21-.21-.18-.3.05l-.49,1.19c-.83-.09-1.83.71-2.51,2.15-.87,1.85-.87,4,0,4.89a1.27,1.27,0,0,0,1.6.1A4.29,4.29,0,0,0,105,156.2a.62.62,0,0,0,0-.62c-.12-.11-.3,0-.41.23-.65,1.38-1.72,2-2.37,1.37s-.66-2.27,0-3.66c.46-1,1.13-1.57,1.72-1.6l-.37.89c-.09.23,0,.45.14.35l1.45-.94a.5.5,0,0,0,.16-.4Z"/><path class="cls-15" d="M143.15,120.27l1.29-2.74a.86.86,0,0,0,0-.85c-.15-.14-.4,0-.55.32l-1.29,2.73-1.3-1.24c-.15-.15-.4,0-.55.32a.86.86,0,0,0,0,.85L142,120.9l-1.29,2.75a.86.86,0,0,0,0,.85.21.21,0,0,0,.28,0,.67.67,0,0,0,.27-.33l1.3-2.74,1.29,1.25a.2.2,0,0,0,.27,0,.75.75,0,0,0,.28-.33.86.86,0,0,0,0-.85Z"/><path class="cls-16" d="M109.79,153.11v-4.56a5,5,0,0,1,2.27-3.9l202.85-117c1.25-.72,2.26-.14,2.26,1.3v4.5a5,5,0,0,1-2.26,3.91L112.06,154.42C110.8,155.14,109.79,154.55,109.79,153.11Z"/><path class="cls-2" d="M311.82,37.65h-.16a.53.53,0,0,1-.28-.59l.22-1.89h0l-.92-.66a.49.49,0,0,1-.2-.42,1,1,0,0,1,.34-.72l1.32-1a.29.29,0,0,0,.09-.15l.59-1.94a.76.76,0,0,1,.59-.57.46.46,0,0,1,.43.26h0l.53,1.14,1.2-.46a.45.45,0,0,1,.5.11.74.74,0,0,1,0,.81l-1,1.8a.43.43,0,0,0,0,.16l.23,1.63a.9.9,0,0,1-.26.73.5.5,0,0,1-.44.18l-1.19-.15-1.15,1.54A.6.6,0,0,1,311.82,37.65ZM311.06,34l.92.66a.56.56,0,0,1,.19.54l-.11,1.56,1-1.26a.61.61,0,0,1,.51-.25l1.19.15a.37.37,0,0,0,0-.24l-.23-1.63a.86.86,0,0,1,.11-.52l1-1.8-1.1.42a.43.43,0,0,1-.57-.22h0l-.49-1h0l-.59,1.94a.82.82,0,0,1-.3.45l-1.32,1A.43.43,0,0,0,311.06,34Z"/><g class="cls-17"><path class="cls-3" d="M319.81,27a.78.78,0,0,1-.39-1.46l6.34-3.66a.78.78,0,1,1,.79,1.35l-6.35,3.67A.76.76,0,0,1,319.81,27Z"/><path class="cls-3" d="M319.81,30.7a.78.78,0,0,1-.4-1.46h0l6.34-3.67a.79.79,0,0,1,.79,1.36l-6.35,3.66A.77.77,0,0,1,319.81,30.7Z"/><path class="cls-3" d="M319.81,34.36a.79.79,0,0,1-.68-.39.77.77,0,0,1,.28-1h0l6.34-3.67a.78.78,0,1,1,.79,1.35l-6.35,3.67A.76.76,0,0,1,319.81,34.36Z"/></g><polygon class="cls-2" points="80.17 160.6 80.17 175.27 75.93 172.82 75.93 158.16 80.17 160.6"/><text class="cls-18" transform="matrix(0.65, -0.38, 0, 1, 250.9, 106.32)">About us</text><polygon class="cls-19" points="91 225.16 160.05 185.29 160.05 297.86 90.8 337.62 91 225.16"/><path class="cls-19" d="M175.27,178.58l83.3-48.09c1.68-1,3-.24,3,1.63a6.65,6.65,0,0,1-3,5.16l-83.31,48.63c-1.67,1-3,.2-3-1.73v-.35A6.7,6.7,0,0,1,175.27,178.58Z"/><path class="cls-19" d="M174.4,193.15l137.84-79.58c1.2-.69,2.17-.2,2.17,1.09a4.63,4.63,0,0,1-2.17,3.6L174.4,197.84c-1.19.69-2.16.2-2.16-1.09A4.67,4.67,0,0,1,174.4,193.15Z"/><path class="cls-19" d="M174.4,202.57,312.24,123c1.2-.69,2.17-.2,2.17,1.09a4.63,4.63,0,0,1-2.17,3.6L174.4,207.26c-1.19.69-2.16.2-2.16-1.1A4.66,4.66,0,0,1,174.4,202.57Z"/><path class="cls-19" d="M174.4,212,312.24,132.4c1.2-.69,2.17-.2,2.17,1.1a4.65,4.65,0,0,1-2.17,3.59L174.4,216.65c-1.19.69-2.16.2-2.16-1.1A4.67,4.67,0,0,1,174.4,212Z"/><path class="cls-19" d="M174.4,221.4l137.84-79.58c1.2-.69,2.17-.2,2.17,1.09a4.63,4.63,0,0,1-2.17,3.6L174.4,226.09c-1.19.69-2.16.2-2.16-1.09A4.67,4.67,0,0,1,174.4,221.4Z"/><path class="cls-19" d="M174.4,230.82l96.18-56c1.19-.69,2.16-.2,2.16,1.1a4.66,4.66,0,0,1-2.16,3.59l-96.18,56c-1.19.69-2.16.2-2.16-1.1A4.66,4.66,0,0,1,174.4,230.82Z"/><path class="cls-19" d="M174.4,249.65l137.84-79.58c1.2-.69,2.17-.2,2.17,1.09a4.63,4.63,0,0,1-2.17,3.6L174.4,254.34c-1.19.69-2.16.2-2.16-1.09A4.67,4.67,0,0,1,174.4,249.65Z"/><path class="cls-19" d="M174.4,259.07l137.84-79.58c1.2-.69,2.17-.2,2.17,1.09a4.63,4.63,0,0,1-2.17,3.6L174.4,263.76c-1.19.69-2.16.2-2.16-1.1A4.66,4.66,0,0,1,174.4,259.07Z"/><path class="cls-19" d="M174.4,268.48,312.24,188.9c1.2-.69,2.17-.2,2.17,1.1a4.65,4.65,0,0,1-2.17,3.59L174.4,273.18c-1.19.69-2.16.2-2.16-1.1A4.67,4.67,0,0,1,174.4,268.48Z"/><path class="cls-19" d="M174.4,277.9l50.66-29.56c1.19-.69,2.16-.2,2.16,1.1a4.66,4.66,0,0,1-2.16,3.59l-50.65,29.56c-1.19.69-2.16.2-2.16-1.09A4.64,4.64,0,0,1,174.4,277.9Z"/></g><g id="Character_3" data-name="Character 3"><path class="cls-20" d="M358.6,223.85c7.33-23.78,14.46-39.45,7.19-44.3h0c-6.76,1.26-9.79,4.61-11.23,13.53-1.51,9.35-4.65,22.39-6.48,29.91a89.21,89.21,0,0,1-6.75,18.17,3.89,3.89,0,0,1-2,1.75c-2.26.89-3.34,2-5.18,3.36-1.45,1-2.51,1.14-2.44,1.57a1.9,1.9,0,0,0,2.26,1.4,13.44,13.44,0,0,0,3.15-1,15.64,15.64,0,0,1-3.94,5.76c-3.55,3-3,5.93,2.69,6.27,2,.12,6.77-1.74,11.16-9.21a75,75,0,0,0,3.91-8.61C354,234.79,357.13,228.65,358.6,223.85Z"/><path class="cls-4" d="M367.06,179.27s-5.64-.29-9.06,3.48S350.6,209,350.6,209s3.74,5.14,13.6,3Z"/><path class="cls-14" d="M367.06,179.27s-5.64-.29-9.06,3.48S350.6,209,350.6,209s3.74,5.14,13.6,3Z"/><rect class="cls-20" x="385.9" y="339.03" width="7.57" height="13.5"/><polygon class="cls-20" points="367.22 338.31 359.65 338.59 359.27 324.3 367.22 324.03 367.22 338.31"/><path class="cls-8" d="M394.54,222.15c0,7.53-1.11,68.13-1.11,68.13.17,2.17,2.12,6.17,1.7,14.49-.57,11.3-1.34,41-1.34,41a9.6,9.6,0,0,1-8.43.18s-7.16-41.15-8.51-52.36c-1.19-9.77-3.2-42.69-3.2-42.69l-4.1,38.27a47.16,47.16,0,0,1,.94,12.54c-.36,5.18-2.79,32.17-2.79,32.17a10,10,0,0,1-8.74.69s-4.31-40.64-4.4-45.4c-.1-5.42,2.52-67.11,2.52-67.11Z"/><path class="cls-7" d="M385.9,348.65v-1.13c-.73.33-2.41,7-5.41,9.88-2.39,2.26-5.65,4.88-6.48,7.41s4.54,4.09,6.77,3.68c2.59-.48,7.09-2.38,8.21-4.15s1.66-4.36,2.58-5.65,3-2.73,3.52-4.23a9.06,9.06,0,0,0-.43-4.14c-.43-1.52-.73-2.93-1.19-2.8v.86a5.79,5.79,0,0,1-3.78,1.34C388.58,349.75,385.89,349.52,385.9,348.65Z"/><path class="cls-7" d="M359.57,336.15c-.39,0-.71.59-1.58,1.57a16.5,16.5,0,0,1-4.45,3.34c-2.84,1.48-8.35,3.75-10.85,4.92-1.55.73-1.48,2.69.13,3.81s5.5,1.92,10.17.83c2.54-.59,5.86-3,7.95-2.91s6,.11,7.57-1,.93-3.48.49-5.52c-.48-2.22-1.07-5.69-1.78-5.54v.77c-.91,1.43-5.61,2-7.61,1Z"/><path class="cls-7" d="M373.65,250.91a27.81,27.81,0,0,1-10.54-6.3s2,4,8.08,7.66l-1.29,34.18Z"/><path class="cls-21" d="M390.6,181.07s5.92.55,5.5,11.83l-1.31,18v27c-5.57,6.31-30.25,5.84-38.7-.51,0,0,1-31.93,1.52-44.22.41-8.73,2.42-13.13,11-14.09l10.55.46Z"/><polygon class="cls-22" points="373.77 186.99 372.41 196.47 369.25 196.41 372.82 196.98 373.77 186.99"/><path class="cls-7" d="M381.67,155.65A11.52,11.52,0,0,1,370.4,167.4c-6.23,0-11-5.27-11.28-11.74-.49-11.47,5.05-11.75,11.28-11.75A11.53,11.53,0,0,1,381.67,155.65Z"/><path class="cls-7" d="M388.06,161.46s-1.73,8.46-2.42,9.85a3.66,3.66,0,0,1-2.12,1.78l.12-6Z"/><path class="cls-7" d="M385.92,149.34s1.24-.31,2.56,1.75c1.13,1.76,1.39,5.72-.39,10.37l-3.25.39Z"/><path class="cls-20" d="M383.86,161.85c.65.41,1.58-.9,2.39-1.78s3.43-2.07,4.75.8-1.16,6.81-3.23,7.49c-3.57,1.17-4.1-1.22-4.1-1.22l-.28,13.4c-4.73,7.33-15.46,7.06-11.6-.35v-4.08a22.13,22.13,0,0,1-4.81.26c-2.62-.43-4.27-2.58-5.07-5.54-1.28-4.75-1.76-8.58-.68-17.93,1.2-10.25,12.64-10.34,18.83-6.25S383.86,161.85,383.86,161.85Z"/><path class="cls-14" d="M383.45,177.54a17.11,17.11,0,0,1-4.63,5.81,13.15,13.15,0,0,1-5.61,2.38,12.39,12.39,0,0,1,4,4.45c1.19,2.6,9.52-4.57,9.44-9.66,0,0-1.3-5.11-3.1-5.43Z"/><path class="cls-14" d="M373.21,185.73s-2.57-1.27-1.42-5.54v-4.08l-1.13.15A9.92,9.92,0,0,0,368,181c-.26,1.17-.9,7.09.23,8.26S370.9,186.05,373.21,185.73Z"/><path class="cls-7" d="M379.48,150.65a1.65,1.65,0,0,1,.88,0c1,.44,1.18,3.46,1.35,4.33.57,2.93,1.05,7.9,2.15,7.92.33,0,1.58-2.15,2.39-2.92,1.13-1.07-.33-10.73-.33-10.73a4.71,4.71,0,0,0-1.08-4.89c-2-2.32-5.22-2.84-8.13-3-3.43-.19-6.91.07-10.29-.68a29.44,29.44,0,0,0-3.23-.69.37.37,0,0,0-.29,0c-.11.09-.09.26-.06.4a10.74,10.74,0,0,0,1.06,2.9,26,26,0,0,1-5.92-1.17.65.65,0,0,0-.34,0c-.23.07-.27.37-.25.61.13,2.42,1.28,6.08,3.25,7.5a11.42,11.42,0,0,0,5.86,1.85C371.8,152.33,375.06,151.21,379.48,150.65Z"/><path class="cls-7" d="M385.92,149.85l3.95-2.21a2.14,2.14,0,0,0-2.82-1.09l-.18.09A2.5,2.5,0,0,0,385.92,149.85Z"/><path class="cls-23" d="M371.8,176.11s5.85-1.23,7.9-2.36a6.93,6.93,0,0,0,2.83-2.92,9.78,9.78,0,0,1-1.61,3.44c-1.49,2-9.12,3.46-9.12,3.46Z"/><path class="cls-7" d="M373.21,160.33a1.17,1.17,0,1,0,1.17-1.28,1.21,1.21,0,0,0-1.17,1.25Z"/><path class="cls-7" d="M375.06,155.27l2.51,1.44a1.59,1.59,0,0,0-.51-2.06,1.36,1.36,0,0,0-1.89.42A1.28,1.28,0,0,0,375.06,155.27Z"/><path class="cls-23" d="M372.33,168.77l-2.68,1a1.4,1.4,0,0,0,1.73,1l.09,0A1.58,1.58,0,0,0,372.33,168.77Z"/><path class="cls-7" d="M362.44,156.34l2.29-1.84a1.35,1.35,0,0,0-1.86-.41.71.71,0,0,0-.14.1A1.62,1.62,0,0,0,362.44,156.34Z"/><path class="cls-7" d="M363.45,160a1.21,1.21,0,0,0,1.16,1.26h0a1.27,1.27,0,0,0,0-2.54A1.25,1.25,0,0,0,363.45,160Z"/><polygon class="cls-23" points="369.73 159 369.59 166.41 365.38 165.44 369.73 159"/><path class="cls-4" d="M402.12,166.45c1.69-2.24,5.11,2.73,6.69,6.16s1.61,5.37.31,6.73-3.75.54-6.2-2.71S401.15,168.1,402.12,166.45Z"/><path class="cls-24" d="M402.12,166.45c1.69-2.24,5.11,2.73,6.69,6.16s1.61,5.37.31,6.73-3.75.54-6.2-2.71S401.15,168.1,402.12,166.45Z"/><path class="cls-20" d="M414.06,167.11c-6,14-14.35,21.89-18.1,30.9-4.91-.33-8.74-12.2-5.08-17.27,0,0,14.38-15.57,15.68-21.69,1.16-5.43,2.71-14.39,2.58-19a3.2,3.2,0,0,0-.89-2c-1.51-1.63-1.51-2.93-2.48-4.72-.75-1.4-1.58-1.92-1.34-2.24a1.81,1.81,0,0,1,2.45-.18,9.75,9.75,0,0,1,1.85,1.78,10.33,10.33,0,0,0-.85-5.26c-1.67-3.78-1.26-5.7,3.83-4.36,3.2.85,5.2,3.51,5.68,11.18a76.72,76.72,0,0,1,.06,9.59c-.56,5.91-.91,12.07-1.64,17A25.75,25.75,0,0,1,414.06,167.11Z"/><path class="cls-4" d="M389.38,180.91l12.68-14.5s-1.51,3.53,1.79,8.68,5.26,4.25,5.26,4.25-7.49,10.93-9.49,14.59-4.09,6.75-4.09,6.75a2.42,2.42,0,0,1-2.37,1.29C391.3,202,386.37,193.71,389.38,180.91Z"/><path class="cls-14" d="M389.38,180.91l12.68-14.5s-1.51,3.53,1.79,8.68,5.26,4.25,5.26,4.25-7.49,10.93-9.49,14.59-4.09,6.75-4.09,6.75a2.42,2.42,0,0,1-2.37,1.29C391.3,202,386.37,193.71,389.38,180.91Z"/></g><g id="Character_2" data-name="Character 2"><polygon class="cls-23" points="286.48 213.5 292.45 221.45 286.03 228.8 277.76 219.13 286.48 213.5"/><path class="cls-3" d="M266.93,195.42c5.21.24,7.69,1,10.42,4.26s16.37,23,16.37,23-2.41,6.76-7.69,6.18l-9.59-9.89Z"/><path class="cls-7" d="M241.37,360.54a38.82,38.82,0,0,0-.6,6.28c-.07,3.8-.77,5.16-.86,8.28-.11,3.57.51,4.91,2,6.91s5.25,3.83,6.86.44,1.4-5.61.88-9.12-.6-5.62-.9-8.38c-.28-2.44-.6-4.29-.6-4.29Z"/><path class="cls-25" d="M252.18,330.65l-12.55-.23c.19,8.38,1.52,22.32,1.74,30.17,0,1.48,0,11.49.52,14.54.84,4.57,6.26,3.95,6.55,1.22s-.35-14.43-.33-15.64c-.05-5,2.31-18.18,3.55-27.23C251.72,333,252.12,331,252.18,330.65Z"/><path class="cls-7" d="M270.61,354s-.64,0-.75.56-.15,1.62-.41,2.66a14.78,14.78,0,0,0-.44,5c.21,1.17,2.88,2.91,4.71,3.22s4.4,2.11,5.83,3.46a14,14,0,0,0,8.11,3.18c3,0,5.17-1,6.17-2.64s-.91-1.83-4.39-4.09l-2.71-1.76c-5.51-3.6-7.53-5.53-9.09-9.13Z"/><path class="cls-25" d="M277.68,352.07c-.09-2.6,1.23-21.7,1.23-21.7l-10.79,1.22c2.56,15.22,2.76,20.41,2.47,22.63h0a2.26,2.26,0,0,0-.07.63c0,3,3.35,4.56,6,6.53a23.43,23.43,0,0,0,6.77,4.23c2,.69,5.71,1,6.18-.27-3.16-2.42-7.48-5.58-10-8.35C278.23,355.65,277.77,354.65,277.68,352.07Z"/><path class="cls-4" d="M242.54,244c-5.88,12.86.22,58.14.22,58.14-.18,2.09-2.57,6.19-3.45,15.38-1.05,10.84,1.93,39.89,1.93,39.89a7,7,0,0,0,7,.15s7.59-42.68,9-53.46c1.19-9.42,3.47-30.12,3.47-30.12l6.48,30.06a56,56,0,0,0-2.06,9.3c-.61,6.34,5.57,38.19,5.57,38.19a8.74,8.74,0,0,0,7-.14s2.73-41.14,3.31-48.78c1-12.84-2.45-52.89-4.8-60.49Z"/><path class="cls-14" d="M242.54,244c-5.88,12.86.22,58.14.22,58.14-.18,2.09-2.57,6.19-3.45,15.38-1.05,10.84,1.93,39.89,1.93,39.89a7,7,0,0,0,7,.15s7.59-42.68,9-53.46c1.19-9.42,3.47-30.12,3.47-30.12l6.48,30.06a56,56,0,0,0-2.06,9.3c-.61,6.34,5.57,38.19,5.57,38.19a8.74,8.74,0,0,0,7-.14s2.73-41.14,3.31-48.78c1-12.84-2.45-52.89-4.8-60.49Z"/><path class="cls-26" d="M260.69,274l1.91-11.94s8.08-1.67,11.75-5.12a20.83,20.83,0,0,1-9.56,6.35l-2.15,9.2,3.76,27.83Z"/><path class="cls-4" d="M245.56,204.08l8,2.08V189.23h0c-4.42-1.15-8,1.4-8,5.7Z"/><path class="cls-7" d="M245.56,204.08l8,2.08V189.23h0c-4.42-1.15-8,1.4-8,5.7Z"/><path class="cls-4" d="M261.4,191.65l-2.87-.06c-8.76-.21-15.7-7.76-15.51-16.88h0c0-9.94,7.7-18,17.24-18.09h0c9.54-.05,17.32,8,17.37,17.9v1C277.39,184.65,270.14,191.84,261.4,191.65Z"/><path class="cls-7" d="M261.4,191.65l-2.87-.06c-8.76-.21-15.7-7.76-15.51-16.88h0c0-9.94,7.7-18,17.24-18.09h0c9.54-.05,17.32,8,17.37,17.9v1C277.39,184.65,270.14,191.84,261.4,191.65Z"/><path class="cls-4" d="M248,160.77a2.17,2.17,0,0,0-2.62-1.6l-.15,0,.77,3a2.1,2.1,0,0,0-3.48.31,1.14,1.14,0,0,0-.1.19l3.9,2.29a2.42,2.42,0,0,0,.26-1.27A2.46,2.46,0,0,0,248,160.77Z"/><path class="cls-7" d="M248,160.77a2.17,2.17,0,0,0-2.62-1.6l-.15,0,.77,3a2.1,2.1,0,0,0-3.48.31,1.14,1.14,0,0,0-.1.19l3.9,2.29a2.42,2.42,0,0,0,.26-1.27A2.46,2.46,0,0,0,248,160.77Z"/><path class="cls-8" d="M252.72,196.11a75.25,75.25,0,0,0-8,1.54C247.82,205.25,243,217,243,217l4.59,14.13c-3.17,6.49-5.78,9.71-6.86,15,2.92,5.7,23.53,11.14,36.95.75,0,0-.43-14.43-2.14-22.84,4.39-8.57,3.68-11.09,2.78-14.08-2.09-6.95-6.31-9.62-11.34-14.52l-3-.32Z"/><path class="cls-7" d="M248.06,236.78c2.49-2.55,7.77-3.28,7.77-3.28L251,230.74l-5.42-13.09a30,30,0,0,0,3.27-14.41l-3.12-.75C246.09,209.42,243,217,243,217l4.59,14.13c-3.17,6.49-5.78,9.71-6.86,15,2,3.9,12.29,7.68,22.89,6.34C249.37,251.51,245.67,239.25,248.06,236.78Z"/><path class="cls-27" d="M262.41,252.58l.58-.06A2.86,2.86,0,0,0,262.41,252.58Z"/><path class="cls-25" d="M271.19,165.48c1.72,1.58,3.87,5,3.7,15-.15,8.5-2.78,10.61-4.11,11.22s-3.88.26-6.37-.16v3.52s3.28,3.64,3.08,6-4.68,3.31-7.91,1a29.91,29.91,0,0,1-6-6.05V185.32s-1.46,1.49-4-.75c-2-1.86-2.76-5-1.17-6.7a3.49,3.49,0,0,1,5,0,3.32,3.32,0,0,1,.74,1.11,32.57,32.57,0,0,0,11-3.16A10.86,10.86,0,0,0,271.19,165.48Z"/><path class="cls-7" d="M264.4,178.57a1,1,0,1,1-1.08-1A1.06,1.06,0,0,1,264.4,178.57Z"/><path class="cls-28" d="M264.79,185.65l2.67.87a1.36,1.36,0,0,1-1.65,1l-.08,0A1.55,1.55,0,0,1,264.79,185.65Z"/><path class="cls-7" d="M274.06,174.74l-2.43-.83a1.18,1.18,0,0,1,1.43-.88l.12,0A1.42,1.42,0,0,1,274.06,174.74Z"/><path class="cls-4" d="M254.11,178.07v3.59a1.7,1.7,0,0,0,1.76-1.62v-.1A1.86,1.86,0,0,0,254.11,178.07Z"/><path class="cls-7" d="M254.11,178.07v3.59a1.7,1.7,0,0,0,1.76-1.62v-.1A1.86,1.86,0,0,0,254.11,178.07Z"/><path class="cls-7" d="M273.18,178.22a1.09,1.09,0,0,1-1,1.17,1.11,1.11,0,1,1,1-1.21Z"/><polygon class="cls-28" points="267.48 176.77 267.46 183.73 270.7 182.66 267.48 176.77"/><path class="cls-28" d="M264.41,191.58c-2.63-.34-8-1.93-8.89-4.15a5.8,5.8,0,0,0,1.91,2.83c1.62,1.43,7,3,7,3Z"/><path class="cls-25" d="M232.41,231.65s6.42,9.12,7.52,10.31,1.86.79,3,.26a33.16,33.16,0,0,1,4.46-1.45c2-.49,2.38,1.32.44,2.61-1.4.94-3,1.34-2.34,2.11a15,15,0,0,0,4.68,2.87c4.74,1.87,4.37,2.81,3.5,4.34-.76,1.34-3,4.22-11.44.82-3.5-1.41-8.42-5.4-10.74-8-3.35-3.71-8.58-10.36-8.58-10.36Z"/><path class="cls-3" d="M246,197.32c-2.32.15-6.69.71-12.17,9.81-4.81,8-12.26,18.81-13.64,22.68-.56,1.57,1.62,4.82,4.43,8.15,3.83-.17,7.32-2.82,9.13-4.94a17.27,17.27,0,0,0-1.76-3.21L243.18,217s4.27-3.91,5.16-9C249.3,202.47,249,198.13,246,197.32Z"/><polygon class="cls-4" points="308.88 214.58 281.17 221.88 273.54 253.23 299.89 245.58 308.88 214.58"/><polygon class="cls-29" points="308.88 214.58 281.17 221.88 273.54 253.23 299.89 245.58 308.88 214.58"/><g class="cls-30"><path d="M296.36,236.78a5.47,5.47,0,0,0,5.18,3.1l.2-.69Z"/></g><g class="cls-30"><path d="M300.53,219.56l.23-1.06c.13-.58-1.5-.61-3.63,0l-4.09,1c-2.13.56-4,1.48-4.09,2.06l-.22,1.06Z"/></g><path class="cls-8" d="M302.66,215.59c.08-.37-.58-.47-1.47-.22l-1.62.45s.48-2.29-3.1-1.49a5.65,5.65,0,0,0-4.38,3.4l-1.72.49c-1,.27-1.82.78-1.93,1.14l-.21.66,14.28-3.76Z"/><path class="cls-8" d="M300.69,216.71c-1.3.32-1.85.49-2,1.39s-.32,1.78-.32,1.78l-6.31,1.67s.31-1.3.41-1.8-.12-.82-1.13-.55l-.08-.4,9.9-2.53Z"/><path class="cls-8" d="M300.91,219.65l.23-1.06c.13-.58-1.5-.61-3.63,0l-4.09,1c-2.13.56-4,1.48-4.09,2.06l-.22,1.06Z"/><path class="cls-25" d="M306,224.65s-1,3.55-1.27,4.39-3.35,2.37-5.38,2.93S295,233.19,296,236c.88,2.63,4.24,3.23,5.94,3.15s4.05-1.7,5-4.33c1.17-3.36.54-6.94,1-8.9S307,223.48,306,224.65Z"/></g><g id="Character_1" data-name="Character 1"><path class="cls-31" d="M201,225.48c-3.8-3.83-5.16-2.34-5.64,1.86a18.91,18.91,0,0,1-1.27,5.13,9.73,9.73,0,0,0-.71-2.53,1.85,1.85,0,0,0-2.26-1.11c-.37.15.09,1,0,2.67-.07,2.08-.75,3.23-.26,5.44a3.57,3.57,0,0,1-.37,2.44c-2,3.8-8.59,10.82-13.21,15.88l-17.55-15.85c-6-5.4-7.94-7.83-13.73-7.44a15.65,15.65,0,0,1,4.92,3c2.69,2.27,2.05,15.26,2.05,15.26s19.92,14.28,22,15.64c.3.2.61.38.91.55a4.91,4.91,0,0,0,6-1.15c4.25-4.86,10.45-14.43,14-19.4a61.27,61.27,0,0,0,4.33-7.54C203.76,231.26,203.37,227.88,201,225.48Z"/><path class="cls-4" d="M146.61,231.65a10,10,0,0,1,8,2c3.42,2.6,18,16,18,16s.4,7.09-7,11.31l-17.87-12.6Z"/><path class="cls-14" d="M146.61,231.65a10,10,0,0,1,8,2c3.42,2.6,18,16,18,16s.4,7.09-7,11.31l-17.87-12.6Z"/><rect class="cls-31" x="121.79" y="391.61" width="7.57" height="13.5"/><polygon class="cls-31" points="148.04 390.89 155.61 391.16 155.99 376.87 148.04 376.6 148.04 390.89"/><path class="cls-8" d="M120.72,274.72c0,7.53,1.11,68.14,1.11,68.14-.17,2.16-2.12,6.16-1.7,14.48.57,11.31,1.34,41,1.34,41a9.63,9.63,0,0,0,8.43.17s7.16-41.15,8.52-52.35c1.18-9.78,3.19-42.7,3.19-42.7l4.1,38.28a47.08,47.08,0,0,0-.94,12.53c.36,5.18,2.79,32.17,2.79,32.17a10,10,0,0,0,8.75.7s4.3-40.65,4.39-45.4c.1-5.42-2.52-67.12-2.52-67.12Z"/><path class="cls-7" d="M129.36,401.21v-1.12c.73.33,2.41,7,5.41,9.87,2.39,2.27,5.65,4.89,6.48,7.42s-4.54,4.08-6.77,3.67c-2.59-.48-7.09-2.38-8.21-4.14s-1.66-4.37-2.58-5.66-3-2.73-3.52-4.23a10,10,0,0,1,.43-4.14c.35-1.39.73-2.92,1.19-2.79V401a5.88,5.88,0,0,0,3.79,1.33C126.68,402.32,129.37,402.09,129.36,401.21Z"/><path class="cls-7" d="M155.69,388.73c.39,0,.71.59,1.58,1.57a16.67,16.67,0,0,0,4.45,3.33c2.84,1.48,8.35,3.76,10.85,4.93,1.56.73,1.48,2.69-.13,3.8s-5.5,1.92-10.17.84c-2.54-.6-5.86-3-8-2.91s-6,.1-7.57-1-.93-3.49-.49-5.52c.48-2.23,1.08-5.7,1.78-5.55V389c.91,1.44,5.61,2,7.61,1Z"/><path class="cls-7" d="M141.61,303.48a27.81,27.81,0,0,0,10.54-6.3s-2,4-8.08,7.66L145.36,339Z"/><path class="cls-21" d="M124.66,233.65s-5.92.54-5.5,11.83l1.31,18-.12,27c5.56,6.31,30.25,5.85,38.7-.51,0,0-.87-31.93-1.44-44.22-.41-8.73-2.42-13.13-11-14.09l-10.56.46Z"/><polygon class="cls-22" points="141.49 239.57 142.85 249.05 146.02 248.99 142.44 249.55 141.49 239.57"/><path class="cls-31" d="M105.87,272.41c3.07-24.7,10.14-37,18.75-38.42l-.61,15.8a139.44,139.44,0,0,0-8.2,26.15c-1.13,6.08-2.44,16.65-2.1,21.84a3.88,3.88,0,0,0,1.1,2.43c1.7,1.73,2.21,3.23,3.35,5.18.9,1.53,1.82,2.07,1.58,2.44a1.91,1.91,0,0,1-2.64.34,14.35,14.35,0,0,1-2.46-2.21,15.59,15.59,0,0,0,1.24,6.87c2,4.16,1.68,6.35-3.9,5.12-3.5-.76-6-4.45-7-13.06a76,76,0,0,1-.17-9.66C105.19,287,105.26,277.35,105.87,272.41Z"/><path class="cls-4" d="M125.11,233.58c-4.47,0-8.55.77-11.8,7-3.11,6-5.5,18.69-6.71,22.84,0,0,6.53,3.86,12.54,3.76l4.23-14.68S126.23,245.65,125.11,233.58Z"/><path class="cls-14" d="M125.11,233.58c-4.47,0-8.55.77-11.8,7-3.11,6-5.5,18.69-6.71,22.84,0,0,6.53,3.86,12.54,3.76l4.23-14.68S126.23,245.65,125.11,233.58Z"/><path class="cls-7" d="M134.34,208.16a11.28,11.28,0,1,0,11.27-11.74A11.53,11.53,0,0,0,134.34,208.16Z"/><path class="cls-7" d="M127.17,214s1.73,8.46,2.42,9.85a3.7,3.7,0,0,0,2.13,1.79l-.13-6Z"/><path class="cls-7" d="M129.34,201.91s-1.28-.26-2.56,1.74c-1.13,1.76-1.38,5.72.39,10.37l3.25.39Z"/><path class="cls-31" d="M131.4,214.42c-.65.41-1.58-.9-2.39-1.77s-3.43-2.08-4.74.8,1.15,6.81,3.22,7.48c3.57,1.17,4.1-1.22,4.1-1.22l.28,13.41c4.73,7.32,15.46,7.06,11.6-.36v-4.11a22.13,22.13,0,0,0,4.81.26c2.62-.42,4.27-2.58,5.07-5.54,1.28-4.75,1.76-8.58.68-17.92-1.19-10.24-12.62-10.35-18.8-6.3S131.4,214.42,131.4,214.42Z"/><path class="cls-14" d="M131.81,230.11a17.11,17.11,0,0,0,4.63,5.81,13.29,13.29,0,0,0,5.61,2.39,12.45,12.45,0,0,0-4,4.44c-1.18,2.61-9.52-4.56-9.44-9.65,0,0,1.31-5.11,3.1-5.44Z"/><path class="cls-14" d="M142.06,238.31s2.57-1.28,1.42-5.55v-4.11l1.13.15a9.92,9.92,0,0,1,2.7,4.69c.26,1.17.9,7.09-.23,8.26S144.36,238.65,142.06,238.31Z"/><path class="cls-7" d="M131.4,215.57c-.33,0-1.58-2.15-2.39-2.92-1.13-1.07.33-10.74.33-10.74a4.75,4.75,0,0,1,1.08-4.89c1.55-1.77,4.13-2,8.53-2.68a46.05,46.05,0,0,0,5.22-1,30.7,30.7,0,0,0,5.22-2.54,2.6,2.6,0,0,1,1.76-.4,1.71,1.71,0,0,1,1.13,1.28,5.26,5.26,0,0,1,0,1.77,2.87,2.87,0,0,1,4.05.14,4.14,4.14,0,0,1,.64,4.28,7.65,7.65,0,0,1-3,3.37c-5.53,3.74-12.06,2.7-18.26,2a1.55,1.55,0,0,0-.88.06c-1,.44-1.18,3.45-1.35,4.32C133,210.57,132.5,215.55,131.4,215.57Z"/><path class="cls-7" d="M129.34,202.42l-3.94-2.21a2.13,2.13,0,0,1,2.81-1.1l.19.1A2.52,2.52,0,0,1,129.34,202.42Z"/><path class="cls-32" d="M143.46,228.65s-5.85-1.23-7.9-2.36a6.82,6.82,0,0,1-2.83-2.92,9.6,9.6,0,0,0,1.61,3.44c1.49,2,9.12,3.47,9.12,3.47Z"/><path class="cls-7" d="M141.34,212.55a1.22,1.22,0,0,1-1.17,1.27h0a1.25,1.25,0,0,1-1.17-1.28,1.17,1.17,0,0,1,2.34,0h0Z"/><path class="cls-7" d="M139.33,207.47l-2.51,1.44a1.61,1.61,0,0,1,.58-2.08,1.39,1.39,0,0,1,1.88.53Z"/><path class="cls-32" d="M142.93,221.34l2.68,1a1.38,1.38,0,0,1-1.72,1l-.1,0A1.58,1.58,0,0,1,142.93,221.34Z"/><path class="cls-7" d="M153.06,208.87l-2.64-1.28a1.35,1.35,0,0,1,1.73-.81l.14.06A1.62,1.62,0,0,1,153.06,208.87Z"/><path class="cls-7" d="M151.33,212.55a1.18,1.18,0,0,1-2.35.22.81.81,0,0,1,0-.22,1.21,1.21,0,0,1,1.16-1.26h0A1.23,1.23,0,0,1,151.33,212.55Z"/><polygon class="cls-32" points="144.68 211.64 144.81 219.05 149.02 218.09 144.68 211.64"/><path class="cls-7" d="M139.53,209.49a2.93,2.93,0,1,0,0,5.86h.53a2.93,2.93,0,1,0,0-5.86Zm-3.47,2.93a3.5,3.5,0,0,1,3.46-3.53h.54a3.53,3.53,0,0,1,0,7h-.53A3.49,3.49,0,0,1,136.06,212.42Z"/><path class="cls-7" d="M150.06,209.49a2.93,2.93,0,0,0,0,5.86h.53a2.93,2.93,0,1,0,0-5.86Zm-3.46,2.93a3.5,3.5,0,0,1,3.46-3.53h.53a3.53,3.53,0,0,1,0,7h-.53a3.49,3.49,0,0,1-3.44-3.47Z"/><path class="cls-7" d="M143.48,211.72a2.28,2.28,0,0,1,1.83-.95,1.87,1.87,0,0,1,1.59.62l.47-.36a2.36,2.36,0,0,0-2.09-.85,2.83,2.83,0,0,0-2.3,1.23Z"/><rect class="cls-7" x="130.42" y="211.69" width="5.96" height="0.59"/></g></g></g></svg>